<?xml version="1.0" encoding="utf-8"?>
<!-- Generator: Adobe Illustrator 18.1.1, SVG Export Plug-In . SVG Version: 6.00 Build 0)  -->
<svg version="1.1" id="Layer_1" xmlns="http://www.w3.org/2000/svg" xmlns:xlink="http://www.w3.org/1999/xlink" x="0px" y="0px"
	 viewBox="0 0 108.626 108.626" enable-background="new 0 0 108.626 108.626" xml:space="preserve">
<path d="M240.121-18.898c0,0.3,0,0.556,0,0.813c0,10.469,0,20.939,0,31.408c0,0.785,0.001,0.786,0.787,0.786
	c8.129,0,16.259,0,24.388,0c0.239,0,0.478,0,0.748,0c0,6.588,0,13.114,0,19.709c-8.652,0-17.289,0-26.001,0c0,0.269,0,0.471,0,0.672
	c0,13.121,0.001,26.243-0.001,39.364c0,2.056,0.231,4.074,0.92,6.024c1.334,3.773,3.971,6.027,7.896,6.778
	c2.328,0.446,4.653,0.31,6.977-0.044c2.43-0.37,4.813-0.915,7.131-1.911c0.382,1.118,0.752,2.191,1.115,3.266
	c1.658,4.913,3.306,9.829,4.982,14.736c0.148,0.435,0.056,0.708-0.227,1.012c-1.316,1.409-2.965,2.322-4.677,3.128
	c-3.654,1.721-7.511,2.778-11.483,3.454c-3.141,0.534-6.305,0.649-9.477,0.499c-6.393-0.302-12.506-1.712-18.114-4.895
	c-7.471-4.24-12.529-10.516-15.4-18.579c-1.347-3.783-1.976-7.693-1.974-11.712c0.008-13.659,0.003-27.318,0.003-40.976
	c0-0.24,0-0.481,0-0.806c-0.256,0-0.473,0-0.69,0c-3.935,0-7.869-0.009-11.804,0.011c-0.498,0.003-0.637-0.129-0.636-0.632
	c0.018-5.234,0.015-10.469,0.003-15.704c-0.001-0.366,0.103-0.54,0.458-0.673c10.128-3.795,17.269-10.707,21.491-20.649
	c1.672-3.937,2.746-8.041,3.341-12.273c0.079-0.565,0.14-1.133,0.219-1.699c0.111-0.795,0.467-1.134,1.213-1.134
	c6.136-0.003,12.272-0.002,18.408-0.001C239.822-18.922,239.924-18.91,240.121-18.898z"/>
<path d="M0,96.479c0-28.111,0-56.222,0-84.333c0.09-0.325,0.199-0.647,0.266-0.976c0.881-4.361,3.188-7.695,7.238-9.619
	C9.013,0.833,10.709,0.505,12.32,0c27.995,0,55.991,0,83.986,0c0.247,0.063,0.492,0.14,0.742,0.188
	c5.421,1.059,9.176,4.057,10.904,9.394c0.272,0.84,0.452,1.709,0.674,2.564c0,28.111,0,56.222,0,84.333
	c-0.101,0.382-0.216,0.761-0.301,1.146c-1.147,5.183-4.207,8.655-9.267,10.311c-0.897,0.293-1.834,0.463-2.752,0.69
	c-27.995,0-55.99,0-83.986,0c-0.248-0.064-0.493-0.139-0.743-0.189c-5.741-1.149-9.576-4.38-11.098-10.144
	C0.319,97.688,0.16,97.084,0,96.479z M86.914,45.968c0.343,1.871,0.754,3.644,0.981,5.44c0.72,5.715-0.086,11.246-2.37,16.521
	c-2.051,4.738-5.103,8.763-9.078,12.078c-3.69,3.077-7.847,5.275-12.459,6.596c-4.586,1.314-9.256,1.624-13.988,1.038
	c-6.192-0.766-11.775-3.057-16.684-6.885c-4.935-3.848-8.551-8.701-10.692-14.622c-2.004-5.54-2.444-11.192-1.334-16.969
	c0.2-1.041,0.453-2.072,0.697-3.18c-3.337,0-6.585,0-9.896,0c-0.022,0.336-0.056,0.619-0.056,0.902
	c-0.002,14.806,0.006,29.611-0.008,44.417c-0.003,3.068,2.134,4.87,4.866,4.865c24.869-0.046,49.738-0.05,74.606,0.005
	c2.776,0.006,4.881-1.981,4.868-4.843c-0.07-14.805-0.033-29.611-0.033-44.417c0-0.306,0-0.613,0-0.947
	C93.119,45.968,90.035,45.968,86.914,45.968z M54.442,75.226c0.866-0.048,1.739-0.037,2.596-0.154
	c6.08-0.83,11.109-3.545,14.9-8.424c2.438-3.138,3.884-6.711,4.202-10.656c0.5-6.194-1.369-11.618-5.66-16.167
	c-3.881-4.114-8.684-6.351-14.276-6.799c-5.364-0.43-10.297,0.898-14.706,4.055c-4.499,3.222-7.39,7.529-8.478,12.935
	c-1.308,6.494,0.267,12.385,4.509,17.413C41.904,72.617,47.656,75.116,54.442,75.226z M85.182,33.504c0,0.014,0,0.028,0,0.042
	c1.995,0,3.991,0.026,5.986-0.006c3.154-0.05,5.118-2.044,5.131-5.2c0.015-3.672,0.013-7.345,0-11.018
	c-0.011-3.164-1.988-5.231-5.172-5.279c-3.903-0.059-7.808-0.064-11.711,0.001c-3.208,0.054-5.147,2.089-5.158,5.277
	c-0.012,3.817-0.025,7.634,0.015,11.451c0.027,2.565,1.933,4.594,4.491,4.712C80.9,33.582,83.043,33.504,85.182,33.504z"/>
<g>
	
		<line fill="none" stroke="#000000" stroke-width="14" stroke-miterlimit="10" x1="246.488" y1="232.127" x2="326.734" y2="312.373"/>
	
		<line fill="none" stroke="#000000" stroke-width="14" stroke-miterlimit="10" x1="326.734" y1="232.127" x2="246.488" y2="312.373"/>
</g>
</svg>
